<svg xmlns="http://www.w3.org/2000/svg" xmlns:xlink="http://www.w3.org/1999/xlink" width="12" height="6.462" viewBox="0 0 12 6.462">
  <defs>
    <style>
      .cls-1 {
        fill: #1b498a;
      }

      .cls-2 {
        clip-path: url(#clip-path);
      }

      .cls-3 {
        clip-path: url(#clip-path-2);
      }
    </style>
    <clipPath id="clip-path">
      <path id="Path_13" data-name="Path 13" class="cls-1" d="M.518-3.016h8.24V-.809c0,.288.164.357.366.153L11.848-3.4a.525.525,0,0,0,0-.738L9.124-6.883c-.2-.2-.366-.135-.366.153v2.207H.518A.52.52,0,0,0,0-4v.462A.521.521,0,0,0,.518-3.016Z"/>
    </clipPath>
    <clipPath id="clip-path-2">
      <path id="Path_12" data-name="Path 12" class="cls-1" d="M-345,1106H1575V-6167H-345Z"/>
    </clipPath>
  </defs>
  <g id="Learn_More" data-name="Learn More" transform="translate(-609 -1528)">
    <g id="Group_9" data-name="Group 9" class="cls-2" transform="translate(609 1535)">
      <g id="Group_8" data-name="Group 8" class="cls-3">
        <path id="Path_11" data-name="Path 11" class="cls-1" d="M-5-12H17V4.462H-5Z"/>
      </g>
    </g>
  </g>
</svg>
